<?xml version="1.0" encoding="utf-8"?>
<!-- Generator: Adobe Illustrator 16.0.0, SVG Export Plug-In . SVG Version: 6.00 Build 0)  -->
<!DOCTYPE svg PUBLIC "-//W3C//DTD SVG 1.1//EN" "http://www.w3.org/Graphics/SVG/1.1/DTD/svg11.dtd">
<svg version="1.1" id="Vrstva_1" xmlns="http://www.w3.org/2000/svg" xmlns:xlink="http://www.w3.org/1999/xlink" x="0px" y="0px"
	 width="113.39px" height="59.53px" viewBox="0 0 113.39 59.53" enable-background="new 0 0 113.39 59.53" xml:space="preserve">
<g>
	<g>
		<path fill="#FFFFFF" d="M53.88,9.964c0.582,0.047,0.329,0.681,0.815,1.025c-0.042-0.176-0.082-0.181-0.082-0.395v-0.473
			l0.133,0.01l0.285,0.888l2.365-0.65l0.235-0.168c0.874,0,1.731-0.474,2.853-0.474h0.653c0.352,0,1.169,0.136,1.387,0.236
			l0.095-0.02l-0.837-3.416L59.262,6.02c0.133-0.483,1.919,0.158,2.536,0.157l-0.496-3.944c-0.305-0.141-0.768-0.237-1.225-0.237
			h-0.326c-0.987,0-3.687,1.182-4.158,1.578l1.63-0.552c0.385,0.789-4.813,1.593-5.708,2.051c0.027,0.315,0.158,1.248,0.226,1.516
			c0.15,0.588,0.074,0.929,0.835,0.929h0.326c1.546,0,4.257-2.603,6.36-2.603h0.979c0.469,0,0.353,0.217,0.733,0.315
			c-0.122,0.444-0.271,0-0.897,0h-0.57c-1.199,0-2.384,0.803-3.147,1.294c-0.553,0.356-2.373,1.388-3.132,1.388h-0.652
			c-0.221,0-0.225-0.037-0.408-0.079l-0.084,0.021l1.114,4.088l0.082,0.076l0.952-0.62L53.88,9.964z"/>
		<path fill="#FFFFFF" d="M63.503,15.171l0.176-0.227c-0.012-0.611,0.293-1.947-0.257-2.14l0.091-0.313l-0.174-0.003l0.093-0.313
			c-0.625-0.288-0.284-0.294-1.185-0.445c-0.295-0.05-1.246-0.11-1.516-0.11l-0.311,0.185l-0.018,0.131l0.978,0.099
			c-0.247,0.188-0.594,0.295-1.059,0.295h-0.245c-0.665,0-1.113-0.329-1.55-0.552c-0.892,0.202-1.702,0.566-2.501,0.894
			c-0.489,0.2-1.973,1.059-2.228,1.08l-0.457,0.425l0.063,0.086l0.556-0.196l-0.138,0.482c0.037,0.115,0.057,0.104,0.057,0.307
			v0.315l0.322-0.089l0.104,0.576l-0.551,0.804c-0.209-0.138-0.251-0.266-0.446-0.266h-0.245c-0.325,0-0.327,0.613-0.327,0.947
			c0,0.218,0.063,0.19,0.246,0.236l0.096-0.787l0.72,0.074c0.053,0.22,0.274,0.583,0.244,0.792l-0.097,0.787
			c0.193,0.117,0.504,0.23,0.504,0.475c0,0.01-0.08,0.156-0.08,0.158l-0.486-0.243c-0.014-0.398-0.247-0.619-0.574-0.704
			c0.043,0.519,0.664,1.341,1.222,1.341h0.409v-0.395h0.245c0.563,2.347,2.063,3.708,5.056,3.708h0.407V22.35l-1.246-0.217
			l0.023-0.098c0.661,0,0.932,0.236,1.468,0.236c0.858,0,1.535-1.155,1.712-1.893h0.245l-0.475,1.347
			c0.658-0.179,1.382-2.248,1.584-3.035C64.367,17.108,64.172,16.394,63.503,15.171z"/>
		<path fill="#FFFFFF" d="M59.832,11.305l0.741-0.039l2.396,0.358l-0.039-0.87l-0.324-0.553h-0.734
			c-0.146-0.096-0.143-0.158-0.326-0.158c-1.749,0-3.155,0.206-4.552,0.566c-0.502,0.13-1.485,0.416-1.946,0.641
			c-0.494,0.24-1.224,0.825-1.655,0.922l-0.033,0.24l0.195,1.338h0.245C54.011,12.981,58.413,11.305,59.832,11.305z"/>
	</g>
	<path fill="#FFFFFF" d="M54.205,3.968h-0.733c0.218-0.316,0.993-0.438,1.447-0.572c0.376-0.109,1.054-0.447,1.46-0.639
		c0.552-0.262,2.446-1.156,3.047-1.156h0.406c0.597,0,0.872,0.236,1.47,0.236V1.68l-0.083-0.315
		c-0.673,0.054-1.041,0.158-1.957,0.158c-0.776,0-1.433-0.05-2.088,0.11c-0.789,0.193-2.733,0.995-3.294,0.995h-0.652
		c-0.844,0-1.887-0.611-2.528,0.237c0.36,0.521,0.665,1.087,0.733,1.893c0.465-0.105,0.916-0.307,1.316-0.462
		C53.253,4.099,53.878,4.169,54.205,3.968z"/>
	<path fill="#FFFFFF" d="M67.044,24.744L67.044,24.744l-0.116-0.028c-0.665-0.15-1.282-0.33-1.925-0.506
		c-0.374-0.103-1.733-0.678-1.745-0.678c-0.332,0-2.5,0.769-3.192,0.846c-0.746,0.084-2.844,0.247-2.923-0.688
		c0.604,0.137,0.898,0.395,1.711,0.395h0.491c1.484,0,2.54-0.614,3.668-0.868l-0.291-1.012l-0.116-0.013
		c-0.109,0.395-0.873,1.015-1.387,1.025l-2.447-0.029l-0.651,0.029c-0.417,0-0.923-0.473-1.223-0.473
		c-0.162,0-0.385,1.024-1.061,1.024c-0.192,0-0.252-0.434-0.734-0.472c-0.038,0.138-1.049,1.257-1.187,1.297
		c-0.578,0.166-1.541,0.313-2.095,0.418c-1.597,0.304-2.049,1.064-3.242,1.676l18.349-1.972L67.044,24.744z"/>
	<path fill="#F5C046" d="M111.21,37.261v0.474c-0.484-0.676-0.247-4.96-0.245-5.996c0.004-0.969-0.083-2.059-0.081-3.156
		c0-0.616-0.085-0.969-0.083-1.5c0.002-0.693,0.164-1.017,0.164-1.42v-0.552c0-3.671-3.333-2.475-3.67-2.919l0.255-0.036
		c-0.998-0.043-1.617,0.115-2.783,0.115c-1.062,0-1.817,0.079-2.854,0.079h-5.872v-0.079h0.408v-0.079l-3.587,0.182l-4.486-0.064
		v-0.118h-0.488c-0.301,0-0.19,0.236-0.49,0.236h-0.244c-0.787,0-1.981-0.295-2.529-0.236l-1.789,0.189l-3.756-0.031
		c-0.936,0-1.802-2.143-2.283-2.84c-0.342-0.492-0.753-0.943-1.163-1.4c-0.261-0.291-0.313-0.435-0.48-0.797
		c-0.182-0.387-0.6-0.551-0.314-0.642c-0.594-0.859-3.525-2.86-4.567-3.393V13.12h0.164c-0.17-0.222-1.709-1.174-2.071-1.312
		c-0.89-0.338-1.759-0.347-2.415-0.898l1.464,0.409l0.006-0.171l-4.21-1.431l-0.031,0.09c0.073,0.862,0.235,1.549,0.735,1.814v0.158
		h0.406v0.316c0.247,0.055,0.49,0.045,0.49,0.315v0.158c0,0.838-0.522,1.479-0.571,2.051h0.488c0.093,0.378,0.245,0.493,0.245,1.025
		v0.868c0,1.39-0.558,2.476-0.967,3.482c-0.233,0.568-0.449,0.976-0.69,1.542c-0.449,1.057-0.042,0.906,0.025,1.682l4.392,1.151
		l-0.16,0.502l-0.526-0.126l-0.116-0.027l-18.349,1.972l-1.043,0.366c0.17-0.731,1.787-1.383,2.267-1.787
		c-0.634,0.014-1.198,0.316-1.958,0.316h-0.978c0.013-0.623,0.314-0.545,0.783-0.741c0.298-0.122,0.699-0.371,1.01-0.522
		c0.43-0.207,1.676-0.944,2.039-1.025c-0.134-0.177-1.599-0.534-2.17-1.372c-0.166-0.243-0.498-0.86-0.629-1.129
		c-0.272-0.557-0.43-0.569-0.708-0.971l0.176-0.043c1.045,0.648,2.099,0.898,3.424,1.295c0.493,0.147,1.523,0.029,2.193,0.087
		c0.715,0.062,1.288,0.302,2.036,0.317l-0.194-1.654l0.031-0.239h-0.653c-0.626,0-1.957-1.97-1.957-2.603v-0.237
		c0-0.633,0.409-0.808,0.409-1.104c0-0.106-0.396-0.626-0.327-1.42h0.245c0.059,0.248,0.282,0.632,0.571,0.632
		c0.231,0,0.357-0.07,0.488-0.158h-0.57c-0.189-0.122-0.489-0.431-0.489-0.71c0-0.552,0.326-0.475,0.326-0.631
		c0-0.505-0.389-1.445-0.535-1.927c-0.118-0.381-0.34-1.78-0.688-1.78c-0.505,0-3.487,0.995-4.045,1.214
		c-0.606,0.239-1.27,0.51-1.839,0.746c-0.374,0.156-1.359,1.083-1.536,0.564l1.567-0.752c-0.303-0.014-1.108,0.273-1.405,0.357
		c-0.49,0.139-0.832,0.53-1.224,0.632l1.306-1.026h-0.163l-0.163,0.079l-0.083,0.079l-0.162,0.079l-0.082,0.08l-0.161,0.078
		l-0.165,0.08l-0.08,0.078l-0.163,0.08l-0.083,0.079l-0.163,0.079l-0.162,0.08l-0.082,0.078l-0.163,0.08l-0.163,0.079l-0.081,0.08
		l-0.163,0.079l-0.082,0.078l-0.163,0.08l-0.081,0.078l-0.163,0.08l-0.081,0.079l-0.083,0.079l-0.081,0.079l-0.164,0.079
		l-0.081,0.079l-0.081,0.079l-0.163,0.079l-0.082,0.079l-0.081,0.079l-0.164,0.08l-0.081,0.078l-0.081,0.08l-0.082,0.078
		l-0.162,0.08l-0.082,0.078l-0.082,0.079l-0.081,0.079v0.079c0.827-0.213,1.882-1.704,3.263-1.813
		c-0.106,0.152-2.168,1.851-2.447,2.051c-0.795,0.568-1.675,1.344-2.386,2.031c-1.664,1.61-2.509,3.185-3.813,5.067H20.282h-7.177
		c-1.212,0-2.423,0.042-3.505,0.083c-0.548,0.021-1.269-0.055-1.79,0.002c-0.456,0.051-1.026,0.231-1.476,0.231H5.684
		c-0.356,0-0.296-0.158-0.652-0.158H4.868c-1.759,0-2.609,1.25-2.609,2.998v2.288c0,2.184,0.091,3.93,0.081,6.076
		c-0.01,1.907,0.081,4.177,0.081,6.231c0,2.615-0.483,4.014,1.605,4.759c1.4,0.498,4.271,0.212,6.144,0.212h5.381
		c0.556,0,0.738,0.16,1.468,0.157c0.544-0.002,1.088,0,1.632,0c1.133,0,1.966-0.08,3.1-0.08c2.155,0,4.145-0.077,6.36-0.077h4.484
		c0.629,0,1.282,0.178,1.711,0.16c0.677-0.027,0.732-0.135,1.205,0.412c0.508,0.588,0.894,1.42,1.42,2.097
		c0.827,1.062,2.366,2.986,3.412,3.721c1.38,0.971,2.537,2.134,4.186,2.973c1.003,0.509,3.746,2.075,5.029,2.075
		c0.733,0.477,5.667,1.026,7.095,1.026h0.735l3.188-0.233l-0.263,0.139l1.395-0.154l0.043-0.146c0.688-0.299,2.382-0.66,3.211-0.957
		c1.104-0.394,1.867-0.73,2.892-1.225c1.365-0.658,3.842-2.287,4.885-3.24c1.574-1.438,2.635-2.459,3.893-4.203
		c2.008-2.778,0.637-2.603,5.549-2.603h0.243l7.667,0.07l2.77-0.172l3.181,0.158l7.668-0.057c1.721,0,5.098,0.302,6.28-0.395
		c1.352-0.793,0.978-3.531,0.978-5.6c0.28,0.197,0.164,0.971,0.164,1.42l0.188-0.27l0.056-2.176H111.21z"/>
	<path fill="#FFFFFF" d="M51.134,24.116l-0.063-0.062l0.993-1.103c-0.884,0.373-1.525,0.837-2.369,1.266
		c-0.322,0.164-2.435,1.04-2.502,1.13l3.259-0.423l1.027-0.879l0.062,0.064l-0.729,0.716c0.932-0.36,3.535-0.072,3.64-1.293
		l-0.965,0.278l-0.014-0.199c0.337-0.076,0.79-0.358,1.078-0.535c0.297-0.181,0.788-0.285,0.798-0.727l-2.12,0.172L51.134,24.116z"
		/>
	<path fill="#FFFFFF" d="M53.717,17.695h0.163c-0.03-0.35-0.282-0.681-0.652-0.71c-0.053,0.211-0.081,0.149-0.081,0.315
		c0,0.402,0.229,0.554,0.57,0.631V17.695z"/>
	<path fill="#FFFFFF" d="M53.554,22.271l1.469-0.147c-0.131-0.482-1.684-0.563-2.365-0.563H51.76c-0.221,0-0.226,0.038-0.409,0.08
		v0.157l0.057-0.078l0.923,0.709l0.906-0.205C53.331,22.24,53.369,22.293,53.554,22.271z"/>
	<path fill="#FFFFFF" d="M50.944,23.139l1.386-0.71l-4.12-1.814l-0.039,0.078c0.602,0.868,1.407,2.021,2.773,2.13V23.139z"/>
	<path fill="#FFFFFF" d="M58.283,22.823l-1.794-0.868C56.563,22.511,57.602,22.823,58.283,22.823z"/>
	<polygon fill="#FFFFFF" points="55.562,21.809 55.743,22.275 55.511,22.271 55.511,22.823 55.837,22.823 55.996,21.954 
		55.902,21.724 	"/>
	<path fill="#79471D" d="M112.595,24.007l-0.079-0.475l-0.083-0.235l-0.081-0.237l-0.083-0.158l-0.081-0.157l-0.08-0.158
		l-0.083-0.079l-0.081-0.237l-0.081-0.079l-0.081-0.08l-0.083-0.078l-0.081-0.079l-0.081-0.158l-0.081-0.079l-0.083-0.078
		l-0.081-0.08l-0.081-0.079l-0.164-0.078l-0.164-0.079l-0.081-0.079l-0.161-0.08l-0.164-0.078l-0.162-0.08l-0.328-0.078h-9.867
		h-1.304l-6.116-0.08h-1.387l-3.671,0.08l-0.081,0.078l-2.119,0.08c0.337,0.446,2.362,0.159,3.022,0.084
		c0.76-0.087,2.592-0.07,3.336-0.084l0.006,0.104l-1.554,0.054v0.09l2.771,0.068v0.105l-8.331-0.005l0.176,0.136
		c-0.605,0-2.253,0.204-2.517-0.137l0.56-0.234l-3.192-0.125l0.176-0.136l-0.571-0.078l-0.081-0.08l-0.081-0.158l-0.081-0.157
		l-0.083-0.079l-0.081-0.158l-0.081-0.157l-0.081-0.158l-0.081-0.158l-0.083-0.158l-0.08-0.079l-0.083-0.158l-0.081-0.158
		l-0.081-0.079l-0.083-0.158l-0.079-0.158l-0.083-0.079l-0.081-0.158l-0.083-0.157l-0.081-0.079l-0.081-0.157l-0.081-0.079
		l-0.083-0.158l-0.081-0.079l-0.081-0.157l-0.083-0.079l-0.081-0.079l-0.081-0.157l-0.08-0.079l-0.083-0.079l-0.081-0.079
		l-0.081-0.158l-0.083-0.079l-0.081-0.079l-0.081-0.079l-0.081-0.08l-0.083-0.078l-0.081-0.079l-0.081-0.079l-0.083-0.08h-0.081
		c-0.289,0.164-1.83-1.436-1.957-1.894v-0.078l-0.081-0.079l-0.081-0.079l-0.081-0.08l-0.083-0.079l-0.081-0.078l-0.083-0.08
		l-0.081-0.079l-0.081-0.079l-0.081-0.078l-0.083-0.08l-0.162-0.079l-0.081-0.079l-0.081-0.079l-0.083-0.079l-0.081-0.08
		l-0.08-0.078l-0.083-0.08l-0.081-0.079l-0.081-0.079l-0.162-0.08l-0.083-0.078l-0.162-0.08l-0.083-0.078l-0.164-0.079l-0.081-0.079
		l-0.162-0.079l-0.164-0.08l-0.081-0.078l-0.161-0.079l-0.083-0.079l-0.164-0.079l-0.081-0.08l-0.164-0.078l-0.079-0.08L70.433,11.7
		l-0.079-0.079l-0.164-0.079l-0.164-0.079l-0.162-0.079l-0.08-0.079l-0.164-0.079l-0.164-0.079l-0.081-0.08l-0.164-0.079
		l-0.162-0.079l-0.164-0.079l-0.081-0.079l-0.164-0.079l-0.162-0.079l-0.163-0.079l-0.081-0.079l-0.245-0.08l-0.243-0.078
		l-0.245-0.079l-0.164-0.08l-0.245-0.079l-0.242-0.079l-0.245-0.079l-0.164-0.079l-0.245-0.079L65.95,9.649l-0.245-0.08L65.46,9.491
		l-0.244-0.08L64.89,9.333l-0.326-0.079l-0.081-0.079l-0.083-0.079l-0.245-0.079l-0.325-0.079l-0.245-0.079l-0.245-0.079h-0.243
		V8.544l-0.083-0.316l-0.081-0.316l-0.081-0.473l-0.083-0.395l-0.081-0.473l-0.081-0.395l-0.081-0.474L62.442,5.23l-0.081-0.395
		L62.28,4.363l-0.083-0.474l-0.081-0.395l-0.081-0.472l-0.081-0.395l-0.083-0.474L61.79,1.68l-0.119-0.631h-0.369h-0.25h-3.909
		l-0.408,0.079l-0.245,0.079l-0.326,0.078l-0.326,0.08l-0.244,0.079l-0.326,0.079l-0.245,0.079L54.776,1.68l-0.245,0.079
		l-0.326,0.079l-0.244,0.079l-2.936,0.079l-0.163,0.079L50.78,2.154l-0.081,0.079l-0.081,0.08L50.535,2.39l-0.081,0.08l-0.081,0.158
		v0.709l0.081,0.237l0.081,0.237l0.083,0.315l0.081,0.473l0.081,0.474l0.082,0.395l0.082,0.395l0.081,0.395l0.081,0.631l0.083,0.552
		l0.08,0.395l0.081,0.395l0.082,0.236v0.237L51.27,8.781v0.079l-0.088,0.231l0.578,0.005v0.158l-0.977,0.1l0.175-0.157L50.922,9.11
		l-2.819,0.894l-0.021-0.083l0.251-0.047l0.002-0.225h-0.081l-0.244,0.079l-0.245,0.079l-0.245,0.079l-0.245,0.079l-0.163,0.079
		l-0.243,0.079l-0.164,0.08L46.54,10.28l-0.244,0.078l-0.164,0.08l-0.162,0.079l-0.164,0.079l-0.163,0.079l-0.163,0.079
		l-0.163,0.079l-0.161,0.079l-0.165,0.079l-0.163,0.079l-0.081,0.08l-0.162,0.079l-0.082,0.079v0.079l-1.306,1.026
		c0.392-0.102,0.733-0.493,1.224-0.632c0.297-0.084,1.103-0.371,1.405-0.358l-1.567,0.753c0.177,0.519,1.162-0.408,1.536-0.563
		c0.569-0.237,1.232-0.508,1.839-0.747c0.558-0.219,3.54-1.214,4.045-1.214c0.349,0,0.57,1.399,0.688,1.78
		c0.146,0.482,0.535,1.422,0.535,1.928c0,0.156-0.326,0.079-0.326,0.63c0,0.279,0.3,0.588,0.489,0.71h0.57
		c-0.131,0.088-0.257,0.158-0.488,0.158c-0.289,0-0.512-0.384-0.571-0.632H52.33c-0.068,0.794,0.327,1.314,0.327,1.42
		c0,0.297-0.409,0.471-0.409,1.104v0.237c0,0.633,1.331,2.603,1.957,2.603h0.653l-0.031,0.239l0.194,1.654
		c-0.749-0.016-1.321-0.256-2.036-0.317c-0.67-0.058-1.7,0.061-2.193-0.087c-1.325-0.396-2.379-0.646-3.424-1.295l-0.176,0.043
		c0.278,0.402,0.435,0.414,0.709,0.971c0.131,0.269,0.462,0.886,0.628,1.129c0.571,0.836,2.036,1.194,2.17,1.372
		c-0.363,0.081-1.608,0.817-2.039,1.025c-0.312,0.15-0.712,0.399-1.01,0.522c-0.469,0.194-0.771,0.117-0.783,0.74h0.978
		c0.76,0,1.324-0.302,1.958-0.316c-0.479,0.403-2.097,1.056-2.267,1.787l0.526-0.185l0.517-0.181
		c1.193-0.612,1.646-1.372,3.242-1.676c0.554-0.105,1.517-0.252,2.095-0.418c0.138-0.04,1.148-1.159,1.187-1.297
		c0.482,0.039,0.542,0.472,0.734,0.472c0.676,0,0.898-1.024,1.061-1.024c0.3,0,0.806,0.473,1.223,0.473l0.651-0.029l2.447,0.029
		c0.514-0.01,1.277-0.631,1.387-1.025l0.116,0.013l0.291,1.012c-1.128,0.254-2.184,0.868-3.668,0.868h-0.491
		c-0.813,0-1.106-0.257-1.711-0.395c0.079,0.935,2.177,0.772,2.923,0.688c0.692-0.078,2.86-0.846,3.192-0.846
		c0.012,0,1.371,0.576,1.745,0.678c0.643,0.176,1.26,0.356,1.925,0.506l0.116,0.028l0.526,0.126l0.16-0.502l-4.392-1.151
		c-0.067-0.775-0.475-0.625-0.025-1.682c0.241-0.565,0.457-0.973,0.69-1.541c0.409-1.007,0.967-2.093,0.967-3.482v-0.868
		c0-0.532-0.152-0.646-0.245-1.025h-0.488c0.049-0.571,0.571-1.212,0.571-2.051V12.41c0-0.271-0.243-0.26-0.49-0.315v-0.316h-0.406
		v-0.158c-0.5-0.265-0.66-0.952-0.735-1.814l0.031-0.09l4.21,1.431l-0.006,0.171L65.95,10.91c0.654,0.551,1.523,0.56,2.413,0.898
		c0.362,0.137,1.903,1.089,2.069,1.311h-0.162v0.158c1.042,0.533,3.974,2.534,4.567,3.393c-0.285,0.091,0.133,0.255,0.314,0.642
		c0.168,0.363,0.22,0.506,0.48,0.797c0.41,0.457,0.821,0.908,1.163,1.4c0.479,0.697,1.348,2.84,2.283,2.84l3.756,0.031l1.789-0.189
		c0.548-0.059,1.742,0.236,2.529,0.236h0.244c0.3,0,0.188-0.236,0.488-0.236h0.49v0.118l4.486,0.064l3.587-0.182v0.079h-0.408v0.079
		h5.872c1.036,0,1.792-0.079,2.854-0.079c1.166,0,1.785-0.158,2.781-0.115l-0.253,0.036c0.337,0.444,3.67-0.751,3.67,2.919v0.552
		c0,0.402-0.162,0.728-0.164,1.42c-0.002,0.529,0.083,0.883,0.081,1.498c0,1.098,0.087,2.188,0.083,3.157
		c-0.002,1.036-0.241,5.32,0.245,5.996v-0.474h0.162l-0.056,2.176l-0.189,0.27c0-0.449,0.118-1.223-0.162-1.42
		c0,2.068,0.374,4.807-0.978,5.6c-1.183,0.696-4.558,0.396-6.28,0.396l-7.668,0.056l-3.181-0.158l-2.77,0.172l-7.667-0.069h-0.243
		c-4.912,0-3.541-0.177-5.549,2.602c-1.258,1.744-2.318,2.763-3.893,4.203c-1.043,0.953-3.52,2.582-4.885,3.24
		c-1.024,0.494-1.786,0.831-2.892,1.227c-0.829,0.295-2.522,0.656-3.211,0.957l-0.043,0.145l-1.395,0.154l0.263-0.139l-3.188,0.233
		h-0.735c-1.428,0-6.361-0.55-7.095-1.026c-1.283,0-4.026-1.566-5.029-2.075c-1.648-0.839-2.806-2.002-4.186-2.973
		c-1.046-0.732-2.585-2.659-3.412-3.721c-0.526-0.677-0.912-1.509-1.42-2.097c-0.473-0.547-0.528-0.439-1.205-0.412
		c-0.429,0.018-1.082-0.16-1.711-0.16H28.11c-2.216,0-4.205,0.077-6.36,0.077c-1.134,0-1.967,0.08-3.1,0.08
		c-0.544,0-1.088-0.002-1.632,0c-0.729,0.002-0.912-0.157-1.468-0.157H10.17c-1.873,0-4.742,0.286-6.144-0.212
		c-2.089-0.745-1.604-2.144-1.604-4.759c0-2.055-0.092-4.324-0.082-6.231c0.01-2.145-0.081-3.892-0.081-6.075v-2.288
		c0-1.748,0.851-2.998,2.609-2.998h0.163c0.356,0,0.296,0.158,0.652,0.158h0.651c0.449,0,1.02-0.181,1.476-0.231
		c0.521-0.057,1.242,0.019,1.79-0.002c1.082-0.041,2.293-0.083,3.505-0.083h7.177h14.351c1.305-1.882,2.149-3.457,3.813-5.067
		c0.71-0.688,1.591-1.463,2.386-2.032c0.279-0.2,2.341-1.899,2.445-2.051c-1.379,0.11-2.434,1.601-3.261,1.815h-0.163l-0.082,0.079
		l-0.081,0.078l-0.164,0.08l-0.08,0.079l-0.081,0.08l-0.164,0.079l-0.081,0.078l-0.082,0.08l-0.082,0.079l-0.081,0.079l-0.081,0.079
		l-0.082,0.079l-0.082,0.08l-0.081,0.078l-0.082,0.08l-0.082,0.078l-0.081,0.079l-0.081,0.079l-0.082,0.079l-0.082,0.079
		l-0.081,0.079l-0.081,0.079l-0.082,0.08l-0.082,0.158l-0.081,0.079l-0.082,0.08l-0.082,0.079l-0.081,0.079l-0.08,0.078l-0.082,0.08
		l-0.082,0.079l-0.081,0.079l-0.082,0.079l-0.082,0.079l-0.081,0.079l-0.082,0.079l-0.081,0.079l-0.081,0.158l-0.082,0.078
		l-0.082,0.079l-0.082,0.079l-0.081,0.078l-0.081,0.079l-0.081,0.079l-0.082,0.079l-0.081,0.08l-0.082,0.079l-0.082,0.079
		l-0.081,0.157l-0.081,0.079l-0.082,0.158l-0.082,0.158l-0.081,0.079l-0.081,0.158l-0.083,0.08l-0.081,0.157l-0.081,0.079
		l-0.082,0.158l-0.081,0.079l-0.082,0.158l-0.082,0.158l-0.082,0.079l-0.08,0.237l-0.082,0.158l-0.081,0.158l-0.082,0.236v0.164
		l-1.549-0.084l-2.529-0.08l-2.527-0.079l-6.604-0.079h-3.589h-1.958l-2.039-0.078H12.29h-0.979l-1.876-0.079H7.642H5.684H5.194
		l-0.979,0.079l-0.57,0.078l-0.164,0.079L3.237,20.85l-0.163,0.08l-0.163,0.078l-0.245,0.08l-0.081,0.078l-0.163,0.08l-0.081,0.079
		l-0.082,0.079l-0.082,0.078L2.014,21.56l-0.082,0.08l-0.081,0.078L1.77,21.797l-0.082,0.079l-0.081,0.079l-0.082,0.079
		l-0.081,0.158l-0.082,0.079L1.28,22.428l-0.082,0.079l-0.082,0.237l-0.081,0.157l-0.082,0.237l-0.081,0.315L0.79,24.007
		l-0.081,5.602v2.286l0.081,0.553l0.082,0.867v1.658L0.79,35.445v0.947v1.104v4.419l0.082,1.498l0.081,0.158l0.082,0.158
		l0.081,0.078l0.082,0.157l0.082,0.079l0.081,0.158l0.082,0.158l0.081,0.079l0.082,0.157l0.081,0.079l0.082,0.157l0.081,0.079
		l0.081,0.079l0.082,0.079l0.163,0.079l0.082,0.078l0.082,0.079l0.162,0.08l0.082,0.079l0.081,0.078l0.164,0.078l0.163,0.079
		l0.488,0.077l0.652,0.081l3.182,0.078l1.712,0.08l0.327,0.077l2.201,0.08h8.889l10.111-0.08l2.854-0.077h0.571l0.408,0.077h0.163
		v0.159l0.08,0.078l0.082,0.157l0.082,0.158l0.082,0.157l0.081,0.158l0.082,0.157l0.081,0.158l0.081,0.158l0.083,0.079l0.081,0.158
		l0.081,0.235l0.082,0.159l0.082,0.157l0.081,0.158l0.081,0.158l0.082,0.079l0.082,0.157l0.081,0.078l0.082,0.158l0.081,0.079
		l0.081,0.079l0.081,0.079l0.082,0.158l0.082,0.079l0.082,0.079l0.081,0.077l0.081,0.079l0.082,0.158l0.081,0.078l0.082,0.079
		l0.082,0.079l0.081,0.079l0.082,0.079l0.082,0.079l0.08,0.077l0.081,0.081l0.082,0.079l0.082,0.077l0.081,0.079l0.082,0.079
		l0.082,0.079l0.081,0.079l0.081,0.079l0.082,0.077l0.082,0.079l0.081,0.079l0.081,0.079l0.082,0.081l0.082,0.077l0.081,0.079
		l0.082,0.079l0.082,0.079l0.081,0.079l0.081,0.079l0.082,0.079l0.082,0.077l0.081,0.079l0.081,0.079l0.164,0.079l0.08,0.079
		l0.083,0.077l0.081,0.081l0.163,0.077l0.081,0.079l0.082,0.079l0.163,0.079l0.082,0.079l0.081,0.079l0.163,0.079l0.081,0.079
		l0.162,0.077l0.083,0.079l0.081,0.079l0.163,0.079l0.082,0.079l0.162,0.078l0.083,0.079l0.081,0.079l0.163,0.079l0.163,0.079
		l0.082,0.077l0.081,0.079l0.081,0.081l0.164,0.077l0.081,0.079l0.082,0.079l0.163,0.079l0.081,0.079l0.163,0.079l0.082,0.079
		l0.163,0.079l0.162,0.079l0.164,0.077l0.082,0.079l0.162,0.081l0.163,0.077l0.081,0.079l0.164,0.079l0.08,0.079l0.083,0.079
		l0.163,0.079l0.081,0.077l0.164,0.079l0.243,0.079l0.163,0.079l0.165,0.081l0.243,0.077l0.244,0.079l0.163,0.079l0.164,0.079
		l0.162,0.079l0.164,0.079l0.244,0.077l0.163,0.079l0.164,0.081l0.161,0.077l0.164,0.079l0.163,0.079l0.243,0.079l0.165,0.079
		l0.162,0.079l0.245,0.079l0.326,0.078l0.326,0.077l0.326,0.079l0.245,0.079l0.327,0.081l0.244,0.077l0.244,0.079l0.325,0.079
		l0.327,0.079l0.327,0.079l0.651,0.079h0.164h0.162l0.163,0.077l0.407,0.081l0.897,0.077l1.142,0.079h3.344l0.979-0.079l0.733-0.077
		l0.735-0.081l0.734-0.077l0.407-0.079l0.326-0.079l0.326-0.079l0.325-0.079l0.326-0.079l0.326-0.077l0.328-0.081l0.245-0.079
		l0.325-0.079l0.326-0.077l0.326-0.078l0.245-0.079l0.325-0.079l0.326-0.079l0.245-0.079l0.162-0.079l0.245-0.079l0.164-0.077
		l0.162-0.081l0.163-0.079l0.162-0.077l0.164-0.079l0.164-0.079l0.162-0.079l0.164-0.079l0.162-0.079l0.162-0.077l0.164-0.081
		l0.161-0.079l0.166-0.079l0.079-0.079l0.164-0.077l0.164-0.079l0.081-0.079l0.245-0.079l0.162-0.079l0.083-0.079l0.162-0.077
		l0.083-0.081l0.08-0.079l0.162-0.077l0.081-0.079l0.083-0.079l0.164-0.079l0.079-0.079l0.166-0.079l0.079-0.079l0.083-0.079
		l0.162-0.079l0.083-0.077l0.081-0.081l0.162-0.079l0.082-0.077l0.081-0.079l0.164-0.079l0.081-0.079l0.162-0.079l0.083-0.078
		l0.081-0.079l0.164-0.079l0.081-0.079l0.083-0.079l0.162-0.077l0.081-0.079l0.081-0.079l0.163-0.079l0.081-0.079l0.083-0.079
		l0.162-0.079l0.081-0.079l0.081-0.077l0.164-0.081l0.081-0.077l0.081-0.079l0.164-0.079l0.083-0.079l0.081-0.079l0.162-0.077
		l0.081-0.079l0.082-0.079l0.083-0.079l0.079-0.079l0.083-0.079l0.081-0.079l0.083-0.077l0.081-0.081l0.081-0.079l0.083-0.079
		l0.081-0.156l0.081-0.079l0.081-0.079l0.081-0.079l0.083-0.079l0.081-0.079l0.081-0.077l0.083-0.16l0.08-0.077l0.081-0.079
		l0.081-0.079l0.081-0.079l0.083-0.079l0.081-0.079l0.081-0.157l0.083-0.079l0.081-0.079l0.081-0.077l0.083-0.079l0.081-0.079
		l0.081-0.079l0.081-0.158l0.083-0.079l0.081-0.079l0.081-0.079l0.083-0.079l0.08-0.157l0.081-0.078l0.081-0.079l0.083-0.079
		l0.081-0.079l0.081-0.079l0.083-0.079l0.081-0.157l0.081-0.08l0.081-0.079l0.083-0.078l0.081-0.079l0.083-0.157l0.079-0.079
		l0.083-0.158l0.081-0.079l0.081-0.158l0.083-0.077l0.08-0.08l0.083-0.158l0.081-0.078l0.081-0.079l0.081-0.158l0.081-0.079
		l0.083-0.156l0.081-0.079l0.081-0.157l0.081-0.08l0.083-0.078l1.549-0.081l0.815-0.077h4.158l6.85,0.077l7.422,0.081l4.649,0.078
		l2.284,0.08h0.813l1.143-0.08l0.57-0.078l0.326-0.081l0.245-0.077l0.164-0.079l0.164-0.078l0.161-0.078l0.162-0.079l0.083-0.08
		l0.081-0.079l0.164-0.078l0.081-0.079l0.081-0.079l0.083-0.079l0.081-0.079l0.081-0.077l0.081-0.08l0.083-0.159l0.081-0.077
		l0.081-0.079l0.081-0.158l0.083-0.158l0.08-0.236l0.081-0.157l0.083-0.316l0.081-0.158l0.083-0.157v-0.631v-0.158v-1.814v-4.417
		v-6.549l-0.083-1.656l-0.081-0.474h0.243l0.083-0.079v-1.894L112.595,24.007z M54.695,10.989c-0.486-0.344-0.233-0.978-0.815-1.025
		l0.352,1.436l-0.952,0.62l-0.082-0.076l-1.114-4.088l0.084-0.021c0.184,0.042,0.188,0.079,0.408,0.079h0.652
		c0.759,0,2.579-1.032,3.132-1.388c0.764-0.492,1.948-1.294,3.147-1.294h0.57c0.627,0,0.775,0.444,0.897,0
		c-0.381-0.098-0.265-0.315-0.733-0.315h-0.979c-2.104,0-4.814,2.603-6.36,2.603h-0.326c-0.761,0-0.685-0.341-0.835-0.929
		c-0.067-0.269-0.198-1.201-0.226-1.516c0.895-0.458,6.093-1.262,5.708-2.051l-1.63,0.552c0.472-0.396,3.171-1.578,4.158-1.578
		h0.326c0.457,0,0.92,0.096,1.225,0.237l0.496,3.944c-0.617,0.001-2.403-0.64-2.536-0.157l2.521,0.509l0.837,3.416l-0.095,0.02
		c-0.218-0.1-1.035-0.236-1.387-0.236h-0.653c-1.121,0-1.979,0.474-2.853,0.474l-0.235,0.168l-2.365,0.65l-0.285-0.888l-0.133-0.01
		v0.473C54.613,10.808,54.653,10.813,54.695,10.989z M53.88,2.627c0.561,0,2.505-0.801,3.294-0.995
		c0.655-0.16,1.312-0.11,2.088-0.11c0.916,0,1.284-0.104,1.957-0.158l0.083,0.315v0.158c-0.598,0-0.873-0.236-1.47-0.236h-0.406
		c-0.601,0-2.495,0.894-3.047,1.156c-0.406,0.192-1.084,0.53-1.46,0.639c-0.454,0.133-1.229,0.256-1.447,0.572h0.733
		c-0.327,0.201-0.952,0.131-1.456,0.327c-0.4,0.155-0.852,0.357-1.316,0.462c-0.068-0.806-0.373-1.373-0.733-1.893
		c0.642-0.848,1.685-0.237,2.528-0.237H53.88z M53.146,17.301c0-0.167,0.028-0.104,0.081-0.315c0.37,0.029,0.622,0.36,0.652,0.71
		h-0.163v0.236C53.376,17.854,53.146,17.703,53.146,17.301z M48.171,20.692l0.039-0.078l4.12,1.814l-0.923-0.709l-0.057,0.078V21.64
		c0.184-0.042,0.188-0.08,0.409-0.08h0.897c0.682,0,2.234,0.082,2.365,0.563l-1.469,0.147c-0.185,0.022-0.223-0.03-0.317-0.047
		l-0.906,0.205l-1.386,0.71v-0.316C49.578,22.714,48.772,21.561,48.171,20.692z M54.55,23.076c-0.288,0.177-0.741,0.459-1.078,0.535
		l0.014,0.199l0.965-0.278c-0.104,1.221-2.708,0.933-3.64,1.293l0.729-0.716l-0.062-0.064l-1.027,0.879l-3.259,0.423
		c0.067-0.09,2.18-0.966,2.502-1.13c0.844-0.429,1.485-0.894,2.369-1.266l-0.993,1.103l0.063,0.062l2.094-1.594l2.12-0.172
		C55.338,22.791,54.847,22.895,54.55,23.076z M55.837,22.823h-0.326v-0.552l0.232,0.004l-0.182-0.466l0.341-0.085l0.094,0.229
		L55.837,22.823z M56.489,21.955l1.794,0.868C57.602,22.823,56.563,22.511,56.489,21.955z M62.376,21.724l0.475-1.347h-0.245
		c-0.177,0.738-0.854,1.893-1.712,1.893c-0.536,0-0.807-0.236-1.468-0.236l-0.023,0.098l1.246,0.217v0.237h-0.407
		c-2.992,0-4.492-1.361-5.056-3.708H54.94v0.395h-0.409c-0.558,0-1.179-0.822-1.222-1.341c0.327,0.085,0.561,0.306,0.574,0.704
		l0.486,0.243c0-0.001,0.08-0.147,0.08-0.158c0-0.245-0.311-0.358-0.504-0.475l0.097-0.787c0.03-0.208-0.191-0.572-0.244-0.792
		l-0.72-0.074l-0.096,0.787c-0.183-0.046-0.246-0.019-0.246-0.236c0-0.334,0.002-0.947,0.327-0.947h0.245
		c0.195,0,0.237,0.127,0.446,0.266l0.551-0.804l-0.104-0.576l-0.322,0.089v-0.315c0-0.202-0.02-0.191-0.057-0.307l0.138-0.482
		l-0.556,0.196l-0.063-0.086l0.457-0.425h-0.245l-0.195-1.338l0.033-0.24c0.432-0.098,1.161-0.682,1.655-0.922
		c0.461-0.226,1.444-0.511,1.946-0.641c1.396-0.36,2.803-0.566,4.552-0.566c0.184,0,0.18,0.063,0.326,0.158h0.734l0.324,0.553
		l0.039,0.87l-2.396-0.358l-0.741,0.039c-1.419,0-5.821,1.676-6.033,2.447c0.255-0.021,1.738-0.879,2.228-1.08
		c0.799-0.327,1.609-0.692,2.501-0.894c0.437,0.223,0.885,0.552,1.55,0.552h0.245c0.465,0,0.812-0.106,1.059-0.295l-0.978-0.099
		l0.018-0.131l0.311-0.185c0.27,0,1.221,0.06,1.516,0.11c0.9,0.151,0.56,0.157,1.185,0.445l-0.093,0.313l0.174,0.003l-0.091,0.313
		c0.55,0.192,0.245,1.528,0.257,2.14l-0.176,0.227c0.669,1.223,0.864,1.938,0.457,3.518C63.758,19.476,63.034,21.545,62.376,21.724z
		"/>
	<g>
		<g>
			<path fill-rule="evenodd" clip-rule="evenodd" fill="#79471D" d="M61.302,15.171c0.16-0.581,0.843-0.648,1.466-0.79v-0.158
				c-0.181-0.041-0.187-0.079-0.406-0.079c-0.502,0-0.494,0.4-0.733,0.079c0.133-0.176,1.038-0.472,1.385-0.472
				c0.128,0,0.283,0.315,0.409,0.315c0.687,0-0.357-1.185-1.223-1.185c-0.106,0-0.176,0.237-0.571,0.237l-0.214,0.017l-0.357,0.693
				c-0.58,0.012-0.898,0.706-0.898,1.262c0,0.759,0.633,1.742,1.373,1.867l-0.629-1.539L61.302,15.171z"/>
			<path fill-rule="evenodd" clip-rule="evenodd" fill="#79471D" d="M56,13.277l-0.29,0.042l-0.912,0.75l-0.079,0.828l1.28-0.664
				l1.224,0.149c0.291,0.028,0.345-0.067,0.427-0.285l0.96,0.363c0.084-0.155,0.163-0.233,0.163-0.474V13.83
				c0-0.378-0.266-0.17-0.408-0.078C58.292,12.912,56.608,13.277,56,13.277"/>
			<path fill-rule="evenodd" clip-rule="evenodd" fill="#79471D" d="M60.403,12.962v0.397l-0.407-0.082
				c-0.021,0.247-0.081,0.28-0.081,0.552v0.158c0,0.129,0.049,0.236,0.162,0.236c0.114,0,0.164-0.107,0.164-0.236v-0.236
				c0.376-0.031,0.49-0.262,0.49-0.632C60.731,12.856,60.605,12.891,60.403,12.962"/>
			<path fill-rule="evenodd" clip-rule="evenodd" fill="#79471D" d="M58.447,15.171h0.325c-0.033-0.38-0.396-0.71-0.815-0.71h-0.325
				c-0.314,0-0.377,0.031-0.409,0.315C57.76,14.776,58.224,14.85,58.447,15.171"/>
			<path fill-rule="evenodd" clip-rule="evenodd" fill="#79471D" d="M58.447,15.171l-2.057,0.083l0.099,0.391h0.733l-0.005,0.339
				l0.893,0.124l-0.442,0.471l0.044,0.17h0.489c0.404,0,0.73-0.392,0.897-0.631c-0.05-0.072-0.132-0.237-0.244-0.237
				c-0.214,0-0.212,0.129-0.567,0.159l0.077-0.237h-0.325c0.352-0.465,0.756,0.223,0.811-0.462L58.447,15.171z"/>
			<path fill-rule="evenodd" clip-rule="evenodd" fill="#79471D" d="M61.302,15.171l-0.014,0.246l0.176,0.227v0.474
				c0.058,0.03,0.401,0.236,0.407,0.236c0.354,0,0.74-0.243,1.061-0.316v-0.394c-0.401,0.032-0.491,0.237-0.732,0.237
				c-0.269,0-0.271-0.041-0.409-0.158c0.471,0,0.932-0.065,0.976-0.483l-0.323,0.089v-0.158l0.744-0.003l-0.093-0.301l-0.895-0.09
				h-0.245C61.827,14.776,61.43,15.088,61.302,15.171"/>
			<path fill-rule="evenodd" clip-rule="evenodd" fill="#79471D" d="M56,16.038l-0.652,0.08v0.315
				c0.219-0.017,0.979-0.126,0.979-0.315c0-0.178,0.032,0.036-0.082-0.158C56.136,16.02,56.158,16.013,56,16.038"/>
			<path fill-rule="evenodd" clip-rule="evenodd" fill="#79471D" d="M58.772,17.301c0,0.288,0.339,0.71,0.489,0.71
				c0.432,0,0.083-0.32,0.083-0.789h0.406c-0.034-0.41-0.192-0.389-0.57-0.474C59.044,16.838,58.772,17.107,58.772,17.301"/>
			<path fill-rule="evenodd" clip-rule="evenodd" fill="#79471D" d="M60.975,17.853c-0.217-0.048-1.387-0.319-1.387,0.079
				c0,0.274,0.146,0.111,0.248,0.441L58.7,18.246l-0.01,0.081v-0.158l-0.183-0.004l0.092-0.537l-0.235-0.168
				c-0.53,0.97-1.875,1.082-1.875,1.656c0,0.611,0.459,0.934,1.06,0.947c-0.054-0.481-0.368-0.221-0.646-0.648l0.646,0.175v-0.394
				c0-0.273,0.49-0.568,0.734-0.632c0.012,0.55,0.132,0.927,0.554,1.121c0.147,0.066,1.2,0.429,1.345,0.507l-0.35,0.107v0.237h0.326
				c0.37,0,0.565-0.287,0.981-0.254l0.894,0.107l0.065-0.073L61.772,20l-0.063,0.061c0.198-0.288,0.32-0.7,0.815-0.71
				c0.043-0.177,0.081-0.182,0.081-0.395v-0.316c0-0.273-0.145-0.111-0.226-0.506l0.633,0.349c-0.032,0.137-0.154,0.395,0.083,0.395
				c0.189,0,0.407-0.211,0.407-0.395v-0.157c0-0.411-1.24-1.026-1.713-1.026C61.75,17.301,61.113,17.782,60.975,17.853
				 M61.219,18.484v-0.157c0.399-0.089,0.563-0.496,0.688-0.89l0.21,0.337h-0.245C61.786,18.127,61.646,18.45,61.219,18.484z
				 M59.67,19.667l0.081-0.394h0.897c0.642,0,0.95-0.195,1.468-0.237C61.695,19.805,60.607,19.456,59.67,19.667z"/>
			<path fill-rule="evenodd" clip-rule="evenodd" fill="#79471D" d="M62.851,20.377l0.652-1.104h-0.488
				C62.979,19.688,62.648,19.971,62.851,20.377"/>
			<path fill-rule="evenodd" clip-rule="evenodd" fill="#79471D" d="M56.606,20.563c-0.204,0.399,1.915,1.787,2.329,1.787
				c0.23,0,0.152-0.035,0.207-0.105L56.606,20.563z"/>
		</g>
		<g>
			<path fill-rule="evenodd" clip-rule="evenodd" fill="#79471D" d="M104.278,26.058c0,0.381,0.101,0.71,0.488,0.71
				c0.602,0,1.876-1.711,1.876-2.446v-0.079c0-0.623-0.188-0.903-0.734-1.025C105.408,23.473,104.278,25.339,104.278,26.058"/>
			<path fill-rule="evenodd" clip-rule="evenodd" fill="#79471D" d="M43.442,25.978v0.237c0,0.319,0.177,0.552,0.488,0.552
				c0.411,0,1.875-1.797,1.875-2.288v-0.079c0-0.615-0.174-1.184-0.815-1.184C44.686,23.217,43.442,25.393,43.442,25.978"/>
			<path fill-rule="evenodd" clip-rule="evenodd" fill="#79471D" d="M21.912,27.793v7.18v3.708c0,1.971-0.259,1.734,2.038,1.734
				c0.813,0,1.402-0.082,2.121-0.078c1.101,0.004,1.223,0.17,1.223-0.947v-1.183c0-0.558-0.491-0.557-1.059-0.553
				c-0.503,0.002-1.27-0.089-1.633,0.08v-2.604h1.958c0.19,0,0.326-0.132,0.326-0.315v-1.895c0-0.177-0.064-0.173-0.165-0.303
				l-1.059-0.093h-0.489c-0.281,0-0.315,0.06-0.58,0.079l0.091-0.71l0.019-0.79l-0.101-0.865h2.284c0.182,0,0.18-0.063,0.315-0.16
				l0.092-0.867v-0.946c0-0.281-0.04-0.632-0.325-0.632h-4.73C22.107,27.635,21.979,27.73,21.912,27.793"/>
			<path fill-rule="evenodd" clip-rule="evenodd" fill="#79471D" d="M80.057,28.03v6.863c0,1.205-0.08,2.159-0.08,3.394
				c0,0.537-0.023,1.195,0.109,1.629c0.085,0.283,0.91,0.58,1.196,0.58h1.466c3.074,0,4.567-3.028,4.567-5.996v-1.185
				c0-2.816-1.436-5.837-4.323-5.837H82.26C81.368,27.478,80.594,27.681,80.057,28.03 M82.748,29.844
				c1.29,0,1.632,1.775,1.632,3.077v2.21c0,1.114-0.227,2.84-1.307,2.84h-0.325V29.844z"/>
			<path fill-rule="evenodd" clip-rule="evenodd" fill="#79471D" d="M29.985,40.574c2.359,0,3.646-0.438,4.616-1.848
				c0.843-1.223,1.256-3.177,1.256-5.175c0-3.092-1.302-6.074-4.404-6.074h-0.652c-0.49,0-1.45,0.15-1.822,0.288
				c-0.596,0.219-0.461,0.933-0.461,1.684v4.261c0,1.284,0.096,2.945,0.001,4.182C28.405,39.366,28.286,40.574,29.985,40.574
				 M31.291,37.971v-8.126h0.243c1.242,0,1.388,2.337,1.388,3.628v1.264C32.922,36.189,32.797,37.971,31.291,37.971z"/>
			<path fill-rule="evenodd" clip-rule="evenodd" fill="#79471D" d="M36.917,27.606c-0.352,1.486-0.081,5.187-0.081,7.13v3.629
				c0,2.057-0.478,2.05,1.713,2.05c0.794,0,1.437-0.082,2.119-0.078c1.102,0.006,1.225,0.17,1.225-0.947l0.018-0.632l-0.1-1.023
				h-2.284v-10.02l0.002-0.086L36.917,27.606z"/>
			<path fill-rule="evenodd" clip-rule="evenodd" fill="#79471D" d="M53.146,28.03v0.157c0,0.432,1.481,4.594,1.712,5.444
				c0.351,1.294,0.326,1.581,0.326,3.234c0,0.961-0.192,2.824,0.164,3.515l2.511-0.059l0.168-0.145l0.093-0.866l0.025-0.871
				l-0.188-1.574v-1.734c0-0.393,0.849-2.913,1.029-3.502c0.159-0.519,1.091-3.183,1.091-3.442v-0.315
				c0-0.182-0.056-0.237-0.245-0.237h-1.631c-0.623,0-1.017,3.231-1.304,3.551c-0.012-0.477-0.695-3.551-1.061-3.551h-2.609
				C53.186,27.813,53.146,27.816,53.146,28.03"/>
			<path fill-rule="evenodd" clip-rule="evenodd" fill="#79471D" d="M65.216,27.611l-0.571,0.024
				c-0.042,0.178-0.081,0.182-0.081,0.395v11.913c0,0.213,0.039,0.217,0.083,0.38l1.385,0.093c0.457,0.038,0.59-0.078,1.115-0.07
				l0.188-1.506l0.021-1.028l-0.103-2.286c0.49,0.546,1.313,4.813,1.875,4.813h2.364c0.184,0,0.18-0.063,0.326-0.158
				c0.099,0.133,0.014,0.158,0.247,0.158h1.466c0.417,0,0.571-0.955,0.571-1.421v-0.473l2.293-0.002l0.334,1.722l0.148,0.159
				l1.385,0.093l0.25,0.031l1.054-0.188c0-1.566-0.326-1.958-0.619-3.188c-0.249-1.062-0.548-2.085-0.762-3.128
				c-0.205-1.009-0.573-2.091-0.731-3.08c-0.152-0.97-0.665-2.273-0.742-3.147c-0.182-0.042-0.186-0.08-0.407-0.08h-1.304
				c-0.522,0-0.805,2.283-0.945,2.874c-0.251,1.042-0.497,2.082-0.752,3.059c-0.226,0.87-1.202,5.803-1.561,6.057l-2.534-6.703
				c0.33-0.6,2.283-4.448,2.283-4.97c0-0.177-0.063-0.174-0.164-0.3l-1.14-0.095c-0.406-0.039-0.479,0.079-0.896,0.079
				c-0.758,1.093-1.507,3.905-2.039,4.497c0-1.07,0.205-3.824-0.162-4.521H65.216z M74.676,36.155c0-0.548,0.431-3.065,0.652-3.313
				l0.6,3.546l-1.252,0.005V36.155z"/>
			<path fill-rule="evenodd" clip-rule="evenodd" fill="#79471D" d="M5.848,28.03V40.1c0,0.546,1.995,0.237,2.527,0.237
				c0.38-1.577,0.163-3.057,0.194-4.9l1.682,4.936l2.69-0.035c0.046-0.063,0.164-0.194,0.164-0.237c0-0.659-0.995-2.789-1.272-3.579
				c-0.414-1.176-1.044-2.381-1.338-3.6c0.466-0.853,2.201-4.078,2.201-5.049c0-0.182-0.056-0.237-0.243-0.237h-1.714
				c-0.745,0-1.715,4.254-2.283,4.655c0-0.756,0.369-4.655-0.244-4.655H5.929C5.886,27.813,5.848,27.816,5.848,28.03"/>
			<path fill-rule="evenodd" clip-rule="evenodd" fill="#79471D" d="M13.594,33.71v6.548c0.184,0.041,0.188,0.079,0.408,0.079h1.387
				c0.438,0,0.244-2.688,0.244-3.234v-3.472c0.543,0.827,2.477,6.706,3.099,6.706h1.306c0.67,0,0.326-5.195,0.326-6.233v-3.392
				c0-0.619,0.228-3.077-0.326-3.077l-1.723,0l-0.153,1.421l-0.02,1.421l0.101,2.76c-0.325-0.452-1.002-2.275-1.279-2.942
				c-0.256-0.617-0.868-2.659-1.574-2.659h-1.713C13.327,29.082,13.594,31.897,13.594,33.71"/>
			<path fill-rule="evenodd" clip-rule="evenodd" fill="#79471D" d="M42.545,27.618c-0.421,0.863-0.163,4.813-0.163,6.329
				c0,0.898-0.26,6.39,0.325,6.39h2.202c0.687,0,0.327-5.159,0.327-6.153c0-1.351,0.236-5.74-0.164-6.586L42.545,27.618z"/>
			<path fill-rule="evenodd" clip-rule="evenodd" fill="#79471D" d="M46.132,28.108v11.439c0,0.31,0.018,0.789,0.326,0.789h2.039
				c0.404,0,0.408-0.982,0.408-1.42l0.02-1.342l-0.102-2.288c0.146,0.204,0.712,2.11,0.866,2.554
				c0.283,0.813,0.504,1.883,0.929,2.496c0.471,0,2.771,0.266,2.771-0.237v-0.314c0-0.276-1.076-2.862-1.271-3.345
				c-0.191-0.472-1.256-3.143-1.256-3.44c0-0.617,2.202-3.894,2.202-4.97v-0.158c0-0.182-0.057-0.237-0.244-0.237h-1.795
				c-0.627,0-1.663,4.056-2.208,4.655l0.006-4.576c-0.182-0.042-0.188-0.08-0.408-0.08h-1.957
				C46.208,27.635,46.132,27.866,46.132,28.108"/>
			<path fill-rule="evenodd" clip-rule="evenodd" fill="#79471D" d="M94.002,27.872c0,1.099,0.405,2.287,0.637,3.17
				c0.279,1.069,0.453,2.079,0.715,3.174c0.245,1.021,0.506,2.111,0.708,3.103c0.097,0.483,0.451,3.019,0.876,3.019h1.306
				c0.511,0,1.393-5.128,1.582-5.965c0.229-1.012,0.445-2.051,0.701-3.028c0.16-0.616,0.639-2.594,0.652-3.156
				c0.245,0.34,2.039,6.216,2.039,6.864v2.444c0,0.61-0.276,2.841,0.325,2.841h2.284c0.59,0,0.245-3.201,0.245-3.865v-1.499
				c0-0.411,0.843-2.894,1.029-3.501c0.249-0.819,1.009-2.721,1.009-3.521v-0.079c0-0.182-0.056-0.237-0.245-0.237h-1.549
				c-0.521,0-1.164,2.719-1.223,3.394h-0.164c0-0.628-0.636-3.394-1.061-3.394h-2.364c-0.184,0-0.18,0.063-0.326,0.158
				c-0.097-0.133-0.012-0.158-0.245-0.158h-1.468c-0.736,0-1.134,5.398-1.601,6.148l-1.009-5.99c-0.16-0.082-0.241-0.158-0.49-0.158
				h-2.119C94.058,27.635,94.002,27.69,94.002,27.872"/>
			<path fill-rule="evenodd" clip-rule="evenodd" fill="#79471D" d="M87.315,39.706V40.1c0,0.314,0.634,0.315,0.979,0.315h0.489
				c1.208,0,0.417-1.972,1.06-1.972l2.034,0.002l0.494,1.877l1.385,0.093h0.652c0.291,0,0.653-0.037,0.653-0.315v-0.394
				c0-0.922-0.509-2.142-0.718-2.935c-0.275-1.04-0.441-1.978-0.687-3.044c-0.447-1.95-0.978-4.053-1.45-6.013
				c-0.183-0.042-0.187-0.08-0.409-0.08h-1.304c-0.617,0-1.395,5.104-1.666,5.963C88.615,34.282,87.315,39.318,87.315,39.706
				 M90.75,32.83l0.706,3.564l-1.329-0.009L90.75,32.83z"/>
		</g>
		<g>
			<path fill-rule="evenodd" clip-rule="evenodd" fill="#79471D" d="M55.104,43.664l-0.002,3.614H56v-2.682
				c0-0.183,0.057-0.236,0.244-0.236h0.653v-0.71c-0.21-0.048-0.191-0.098-0.41-0.099L55.104,43.664z"/>
			<path fill-rule="evenodd" clip-rule="evenodd" fill="#79471D" d="M52.33,43.65c-0.254-0.021-0.29-0.079-0.57-0.079
				c-0.779,0-1.061,1.092-1.061,1.893c0,0.823,0.156,1.814,0.979,1.814h1.55v-4.733H52.33V43.65z M51.74,46.02l0.02-1.187
				c0-0.285,0.067-0.44,0.162-0.631h0.326c0.021,0.247,0.082,0.279,0.082,0.554v1.971l-0.479-0.002L51.74,46.02z"/>
			<path fill-rule="evenodd" clip-rule="evenodd" fill="#79471D" d="M56.979,45.387c0,1.08,0.398,1.971,1.548,1.971
				c0.493,0,1.061-0.914,1.061-1.498V45.07c0-0.791-0.458-1.499-1.305-1.499C57.389,43.571,56.979,44.503,56.979,45.387
				 M58.039,44.833c0-0.285,0.068-0.44,0.162-0.631h0.326l0.102,1.023l-0.02,0.555c0,0.332-0.002,0.946-0.326,0.946
				c-0.154,0-0.244-0.291-0.244-0.473V44.833z"/>
			<path fill-rule="evenodd" clip-rule="evenodd" fill="#79471D" d="M47.845,45.387c0,0.772,0.43,1.971,1.142,1.971
				c0.895,0,1.468-0.677,1.468-1.498V45.07c0-0.772-0.465-1.499-1.305-1.499C48.231,43.571,47.845,44.489,47.845,45.387
				 M49.313,46.727c-0.323-0.025-0.407-0.151-0.407-0.473v-1.421c0-0.34,0.095-0.428,0.166-0.72l0.31,0.091l0.096,1.023v0.632
				C49.477,46.233,49.384,46.428,49.313,46.727z"/>
			<path fill-rule="evenodd" clip-rule="evenodd" fill="#79471D" d="M59.996,47.278h0.897v-1.813h0.244
				c0.765,0-0.339,1.813,1.143,1.813h0.325v-0.474c-0.677-0.236,0.271-1.184-0.647-1.653l0.403-1.501l-0.718,0.004L61.3,44.912
				h-0.406v-2.367h-0.897V47.278z"/>
			<path fill-rule="evenodd" clip-rule="evenodd" fill="#79471D" d="M62.851,46.332c0,0.541,0.316,1.068,0.894,0.985l1.227-0.039
				h0.326V43.65h-0.897v3.076h-0.487c-0.043-0.177-0.083-0.182-0.083-0.395V43.65h-0.979V46.332z"/>
			<path fill-rule="evenodd" clip-rule="evenodd" fill="#79471D" d="M60.403,52.484v0.789h1.551v0.867h0.896v-0.944h0.326v-0.712
				h-0.326V49.41h-0.815C61.653,49.41,60.403,52.276,60.403,52.484 M61.829,50.811l0.042,1.674l-0.839-0.01L61.829,50.811z"/>
			<path fill-rule="evenodd" clip-rule="evenodd" fill="#79471D" d="M51.922,49.647v0.472h0.815v4.021h0.897v-4.73h-0.651
				C52.656,49.41,52.239,49.574,51.922,49.647"/>
			<path fill-rule="evenodd" clip-rule="evenodd" fill="#79471D" d="M54.695,50.198l-0.082,1.104v0.079
				c0,0.579,0.298,1.185,0.897,1.185h0.163c0.281,0,0.315-0.06,0.57-0.081v0.316c0,0.343-0.156,0.867-0.488,0.867h-0.245
				c-0.297,0-0.286-0.094-0.563-0.155l-0.09,0.549c0.285,0.066,0.275,0.16,0.571,0.16h0.489c0.991,0,1.305-0.938,1.305-1.894v-1.026
				c0-1.03-0.248-1.229-0.653-1.804l-0.896-0.088h-0.081C55.129,49.41,54.88,49.931,54.695,50.198 M55.593,50.75
				c0-0.432,0.054-0.7,0.489-0.71l0.099,0.708l-0.018,0.87c0,0.214-0.038,0.218-0.081,0.396h-0.408l-0.101-0.708L55.593,50.75z"/>
			<path fill-rule="evenodd" clip-rule="evenodd" fill="#79471D" d="M57.549,50.75v0.552c0,0.641,0.25,1.264,0.898,1.264h0.162
				c0.281,0,0.315-0.06,0.571-0.081v0.396c0,0.252-0.199,0.788-0.49,0.788h-0.243c-0.297,0-0.287-0.094-0.571-0.157
				c-0.027,0.323-0.082,0.177-0.082,0.474c0,0.174,0.436,0.237,0.653,0.237h0.488c0.805,0,1.225-1.015,1.225-1.814v-0.945
				c0-0.991-0.198-2.052-1.225-2.052h-0.408C57.973,49.41,57.549,50.156,57.549,50.75 M58.527,50.75c0-0.339,0.096-0.428,0.163-0.71
				c0.384,0.031,0.408,0.253,0.408,0.631v0.791c0,0.271-0.061,0.305-0.082,0.552h-0.407l-0.101-0.708L58.527,50.75z"/>
		</g>
	</g>
</g>
</svg>
